<svg xmlns="http://www.w3.org/2000/svg" viewBox="0 0 496.06 91.12"><defs><style>.cls-1{fill:#8cc2eb;}.cls-2{fill:#2262a0;}.cls-3{fill:#2a9b90;}.cls-4{fill:#5b69a8;}.cls-5{fill:#e6b536;}.cls-6{fill:#00113b;}</style></defs><title>Ativo 10</title><g id="Camada_2" data-name="Camada 2"><g id="Ebene_1" data-name="Ebene 1"><path class="cls-1" d="M85.9,91.12H74.45c0-10.4-3-18-9.25-23.32C51.42,56.08,26.85,59.91,26.6,60L24.76,48.66C26,48.46,54.85,44,72.62,59.08,81.43,66.58,85.9,77.36,85.9,91.12Z"/><path class="cls-2" d="M36.19,59.77a54.81,54.81,0,0,1-5.74-.27l1.31-11.37c4.86.54,19.07.51,26.2-6.09,3.33-3.08,4.85-7.33,4.66-13-.16-4.73-1.82-8.37-5.09-11.11-9-7.59-28-6.88-34.53-6L21.42.64C22.59.47,50.16-3.21,64.9,9.18c5.81,4.88,8.89,11.43,9.16,19.48.31,9.07-2.51,16.41-8.36,21.82C57,58.5,43.73,59.77,36.19,59.77Z"/><rect class="cls-3" x="20.45" y="27.27" width="11.45" height="52.36"/><path class="cls-4" d="M42,59.54s12.83-1,20.76-6.76l3.66,2.16A55.52,55.52,0,0,1,42,59.54Z"/><circle class="cls-5" cx="6.81" cy="54.05" r="6.81"/><path class="cls-6" d="M149.52,44.81H169a7.75,7.75,0,0,0,4-1.05,6.88,6.88,0,0,0,2.72-3,9.79,9.79,0,0,0,1-4.43,9.83,9.83,0,0,0-1-4.44,7,7,0,0,0-2.7-3A7.72,7.72,0,0,0,169,27.9H149.52V20.64h19.13a18.66,18.66,0,0,1,8.68,1.94,14,14,0,0,1,5.8,5.52,16.31,16.31,0,0,1,2.06,8.26,16.08,16.08,0,0,1-2.08,8.25,14.09,14.09,0,0,1-5.82,5.52,18.43,18.43,0,0,1-8.64,1.94H149.52Z"/><polygon class="cls-6" points="165.04 50.39 173 48.67 187.58 75.09 178.09 75.09 165.04 50.39"/><polygon class="cls-6" points="229.98 20.68 236.8 20.68 257.81 75.09 249.19 75.09 233.39 31.19 217.59 75.09 208.97 75.09 229.98 20.68"/><rect class="cls-5" x="218.65" y="55.89" width="29.99" height="7.26"/><path class="cls-6" d="M291.18,73.14a17.4,17.4,0,0,1-7-7.11,22.16,22.16,0,0,1-2.47-10.66V40.43a22.16,22.16,0,0,1,2.47-10.66,17.51,17.51,0,0,1,7-7.13,20.9,20.9,0,0,1,10.41-2.53,20.25,20.25,0,0,1,9,2,18.63,18.63,0,0,1,6.88,5.67,20.71,20.71,0,0,1,3.75,8.49H313a11.91,11.91,0,0,0-2.48-4.55,12.18,12.18,0,0,0-4.1-3.08,12,12,0,0,0-11,.52,10.8,10.8,0,0,0-4.07,4.51,14.85,14.85,0,0,0-1.46,6.75V55.37a14.88,14.88,0,0,0,1.46,6.73,10.62,10.62,0,0,0,4.07,4.51,11.58,11.58,0,0,0,6.12,1.59,12.05,12.05,0,0,0,4.88-1A11.53,11.53,0,0,0,313,59.48h8.2a20.71,20.71,0,0,1-3.77,8.5,19,19,0,0,1-6.9,5.67,20.27,20.27,0,0,1-9,2A21,21,0,0,1,291.18,73.14Z"/><rect class="cls-6" x="350.26" y="20.68" width="8" height="54.41"/><rect class="cls-3" x="350.26" y="44.66" width="36.62" height="7.26"/><rect class="cls-6" x="382.64" y="20.68" width="8" height="54.41"/><rect class="cls-6" x="422.41" y="20.68" width="8" height="54.41"/><rect class="cls-6" x="426.3" y="20.68" width="32.73" height="7.26"/><rect class="cls-2" x="426.3" y="44.44" width="28.42" height="7.26"/><rect class="cls-6" x="426.3" y="67.83" width="32.73" height="7.26"/><rect class="cls-3" x="146.03" y="20.64" width="8" height="54.45"/><path class="cls-6" d="M492.06,30.5a21.16,21.16,0,0,1-4-.37v45h8v-45A21.23,21.23,0,0,1,492.06,30.5Z"/><circle class="cls-5" cx="492.06" cy="20.68" r="4"/></g></g></svg>